<svg width="230" height="72" viewBox="0 0 230 72" fill="none" xmlns="http://www.w3.org/2000/svg">
<path id="PinkkStore" d="M30.9531 18.5625C30.9531 21.6562 30.4531 24.7656 29.4531 27.8906C28.4844 31.0156 27.1094 33.9375 25.3281 36.6562C23.5781 39.375 21.4688 41.7969 19 43.9219C16.5312 46.0469 13.8281 47.6562 10.8906 48.75C11.0781 51.3438 11.2969 53.9219 11.5469 56.4844C11.7969 59.0469 12.1406 61.625 12.5781 64.2188C12.6719 64.6875 12.7656 65.1719 12.8594 65.6719C12.9844 66.1719 13.0469 66.6875 13.0469 67.2188C13.0469 68.0312 12.8438 68.5781 12.4375 68.8594C12.0312 69.1406 11.4531 69.2812 10.7031 69.2812C10.1719 69.2812 9.53125 69.2188 8.78125 69.0938C8.03125 68.9688 7.39062 68.7812 6.85938 68.5312C6.23438 68.1875 5.8125 67.8438 5.59375 67.5C5.40625 67.125 5.26562 66.625 5.17188 66C4.64062 63.3438 4.3125 60.6875 4.1875 58.0312C4.09375 55.375 3.95312 52.7188 3.76562 50.0625C3.14062 50 2.625 49.8438 2.21875 49.5938C1.8125 49.3125 1.60938 48.8438 1.60938 48.1875C1.60938 47.5625 1.78125 46.9062 2.125 46.2188C2.5 45.5312 2.92188 45 3.39062 44.625C3.10938 38.8125 2.98438 33.0469 3.01562 27.3281C3.07812 21.6094 3.07812 15.8438 3.01562 10.0312C2.85938 10.0937 2.71875 10.1406 2.59375 10.1719C2.46875 10.2031 2.32812 10.2188 2.17188 10.2188C1.82812 10.2188 1.54688 10.1406 1.32812 9.98438C1.10938 9.79688 0.921875 9.57812 0.765625 9.32812C0.640625 9.07813 0.546875 8.8125 0.484375 8.53125C0.421875 8.21875 0.390625 7.9375 0.390625 7.6875C0.390625 6.75 0.625 6.07813 1.09375 5.67188C1.5625 5.23438 2.20312 4.84375 3.01562 4.5C3.01562 4.15625 3.01562 3.76562 3.01562 3.32812C3.04688 2.85938 3.10938 2.4375 3.20312 2.0625C3.32812 1.65625 3.51562 1.32812 3.76562 1.07812C4.01562 0.796875 4.39062 0.65625 4.89062 0.65625C5.70312 0.65625 6.48438 0.8125 7.23438 1.125C7.98438 1.4375 8.54688 1.96875 8.92188 2.71875C10.0156 2.53125 11.0781 2.35937 12.1094 2.20312C13.1406 2.04688 14.2031 1.96875 15.2969 1.96875C17.7656 1.96875 19.9688 2.39062 21.9062 3.23438C23.8438 4.04687 25.4844 5.20312 26.8281 6.70312C28.1719 8.17187 29.1875 9.92188 29.875 11.9531C30.5938 13.9844 30.9531 16.1875 30.9531 18.5625ZM23.9219 17.7188C23.9219 16.2812 23.7344 14.9375 23.3594 13.6875C22.9844 12.4063 22.4219 11.3125 21.6719 10.4062C20.9219 9.46875 19.9688 8.73437 18.8125 8.20312C17.6562 7.67188 16.2969 7.40625 14.7344 7.40625C13.8906 7.40625 13.0312 7.46875 12.1562 7.59375C11.3125 7.71875 10.4844 7.90625 9.67188 8.15625C9.67188 13.875 9.70312 19.5469 9.76562 25.1719C9.85938 30.7969 10.0781 36.4375 10.4219 42.0938C12.4219 41.0625 14.25 39.625 15.9062 37.7812C17.5625 35.9375 18.9844 33.9062 20.1719 31.6875C21.3594 29.4375 22.2812 27.1094 22.9375 24.7031C23.5938 22.2656 23.9219 19.9375 23.9219 17.7188ZM38.875 29.5781C38.875 30.1094 38.75 30.5 38.5 30.75C38.2812 30.9688 37.8594 31.0781 37.2344 31.0781C36.9531 31.0781 36.5156 31.0469 35.9219 30.9844C35.3281 30.8906 34.7188 30.7656 34.0938 30.6094C33.5 30.4531 32.9688 30.2344 32.5 29.9531C32.0625 29.6719 31.8438 29.3281 31.8438 28.9219C31.8438 28.7969 31.8906 28.4531 31.9844 27.8906C32.0781 27.2969 32.1875 26.6719 32.3125 26.0156C32.4688 25.3594 32.5938 24.7656 32.6875 24.2344C32.8125 23.7031 32.9062 23.4062 32.9688 23.3438V23.3906C33.125 23.1406 33.3125 22.9844 33.5312 22.9219C33.75 22.8594 33.9688 22.8281 34.1875 22.8281C34.4688 22.8281 34.8281 22.875 35.2656 22.9688C35.7344 23.0312 36.1875 23.1406 36.625 23.2969C37.0938 23.4219 37.5156 23.5938 37.8906 23.8125C38.2656 24.0312 38.5 24.2656 38.5938 24.5156C38.6875 24.7656 38.7344 25.1094 38.7344 25.5469C38.7656 25.9531 38.7656 26.3281 38.7344 26.6719C38.7344 26.7969 38.7188 26.9531 38.6875 27.1406C38.6875 27.2969 38.6875 27.4219 38.6875 27.5156C38.6875 27.6719 38.6875 27.8281 38.6875 27.9844C38.7188 28.1406 38.75 28.2969 38.7812 28.4531C38.8125 28.6094 38.8281 28.7812 38.8281 28.9688C38.8594 29.1562 38.875 29.3594 38.875 29.5781ZM40.6094 66.9375C40.6094 67.6562 40.4375 68.1719 40.0938 68.4844C39.7812 68.7656 39.2656 68.9062 38.5469 68.9062C38.1719 68.9062 37.75 68.8594 37.2812 68.7656C36.8438 68.6719 36.4062 68.5469 35.9688 68.3906C35.5312 68.2031 35.125 67.9844 34.75 67.7344C34.375 67.4844 34.0938 67.2031 33.9062 66.8906C33.7812 66.7031 33.6719 66.125 33.5781 65.1562C33.4844 64.1875 33.4062 62.9844 33.3438 61.5469C33.3125 60.1094 33.2656 58.5 33.2031 56.7188C33.1719 54.9375 33.1406 53.1406 33.1094 51.3281C33.1094 49.5156 33.1094 47.75 33.1094 46.0312C33.1094 44.3125 33.1094 42.8125 33.1094 41.5312V37.9219C33.1094 37.6094 33.1094 37.2969 33.1094 36.9844C33.1406 36.6719 33.2031 36.4062 33.2969 36.1875C33.4219 35.9375 33.5938 35.7344 33.8125 35.5781C34.0625 35.4219 34.4062 35.3438 34.8438 35.3438C36.2188 35.3438 37.2188 35.7344 37.8438 36.5156C38.5 37.2656 38.9062 38.2812 39.0625 39.5625C39.2188 41.4688 39.3281 43.375 39.3906 45.2812C39.4844 47.1562 39.5625 49.0625 39.625 51C39.6875 52.75 39.7344 54.4844 39.7656 56.2031C39.8281 57.8906 39.9375 59.5781 40.0938 61.2656C40.125 61.6094 40.1562 61.9375 40.1875 62.25C40.2188 62.5625 40.2656 62.875 40.3281 63.1875C40.3906 63.8125 40.4531 64.4375 40.5156 65.0625C40.5781 65.6562 40.6094 66.2812 40.6094 66.9375ZM52.5625 68.7656C52.5625 69.4844 52.3438 69.9531 51.9062 70.1719C51.5 70.3906 51 70.5 50.4062 70.5C49.875 70.5 49.3438 70.4531 48.8125 70.3594C48.3125 70.2969 47.8281 70.1562 47.3594 69.9375C46.9219 69.7188 46.5312 69.4219 46.1875 69.0469C45.875 68.6719 45.6562 68.1875 45.5312 67.5938C45.0938 65.7188 44.8438 63.8906 44.7812 62.1094C44.7188 60.2969 44.6875 58.4375 44.6875 56.5312V50.7656C44.6875 48.1406 44.7969 45.4219 45.0156 42.6094C45.2344 39.7656 45.4688 37.0312 45.7188 34.4062C45.7188 34.3125 45.7344 34.2031 45.7656 34.0781C45.7969 33.9531 45.8125 33.8594 45.8125 33.7969C45.8438 33.4531 45.8906 33.0781 45.9531 32.6719C46.0156 32.2656 46.1094 31.9062 46.2344 31.5938C46.3906 31.25 46.5938 30.9688 46.8438 30.75C47.125 30.5312 47.4844 30.4219 47.9219 30.4219C48.4219 30.4219 48.8906 30.5312 49.3281 30.75C49.7969 30.9375 50.2031 31.2031 50.5469 31.5469C50.8906 31.8594 51.1562 32.25 51.3438 32.7188C51.5625 33.1875 51.6719 33.6719 51.6719 34.1719C51.6719 34.7031 51.6562 35.2969 51.625 35.9531C51.5938 36.5781 51.5469 37.1719 51.4844 37.7344C51.4844 37.8906 51.4688 38.0625 51.4375 38.25C51.4375 38.4375 51.4219 38.6094 51.3906 38.7656C51.8281 37.8906 52.3281 36.9844 52.8906 36.0469C53.4531 35.0781 54.0938 34.2031 54.8125 33.4219C55.5625 32.6094 56.375 31.9531 57.25 31.4531C58.1562 30.9531 59.1562 30.7031 60.25 30.7031C61.1562 30.7031 61.9062 30.8438 62.5 31.125C63.0938 31.4062 63.5625 31.8125 63.9062 32.3438C64.2812 32.8438 64.5312 33.4375 64.6562 34.125C64.8125 34.8125 64.8906 35.5469 64.8906 36.3281C64.8906 37.3906 64.8594 38.4688 64.7969 39.5625C64.7344 40.625 64.6719 41.6875 64.6094 42.75C64.5156 43.8438 64.4375 44.9219 64.375 45.9844C64.3125 47.0469 64.2812 48.125 64.2812 49.2188C64.2812 50.5312 64.3125 51.8906 64.375 53.2969C64.4375 54.6719 64.5312 56 64.6562 57.2812C64.7812 58.5312 64.9219 59.6719 65.0781 60.7031C65.2344 61.7031 65.3906 62.4844 65.5469 63.0469C65.6719 63.5156 65.7969 64.0625 65.9219 64.6875C66.0781 65.2812 66.2188 65.9062 66.3438 66.5625C66.5 67.1875 66.625 67.7969 66.7188 68.3906C66.8125 68.9844 66.8594 69.5156 66.8594 69.9844C66.8594 70.6719 66.5781 71.1094 66.0156 71.2969C65.4844 71.4844 64.9531 71.5781 64.4219 71.5781C63.8906 71.5781 63.2812 71.5312 62.5938 71.4375C61.9375 71.375 61.3438 71.2031 60.8125 70.9219C60.1562 70.4531 59.7188 69.7969 59.5 68.9531C59.3125 68.1094 59.1875 67.2812 59.125 66.4688L58.9844 65.2031C58.8906 64.4531 58.7656 63.4688 58.6094 62.25C58.4531 61.0312 58.2969 59.6875 58.1406 58.2188C58.0156 56.75 57.9062 55.2344 57.8125 53.6719C57.7188 52.0781 57.6719 50.5312 57.6719 49.0312C57.6719 47.6875 57.7188 46.3906 57.8125 45.1406C57.9375 43.8906 58.0625 42.625 58.1875 41.3438C58.25 40.6875 58.2969 40.1562 58.3281 39.75C58.3594 39.3438 58.4062 38.8125 58.4688 38.1562C57.8438 39.1562 57.2188 40.3281 56.5938 41.6719C55.9688 43.0156 55.375 44.4219 54.8125 45.8906C54.25 47.3281 53.7344 48.7344 53.2656 50.1094C52.8281 51.4844 52.4844 52.6875 52.2344 53.7188L51.9531 54.75C51.7969 55.25 51.6562 55.75 51.5312 56.25C51.4375 56.75 51.3906 57.2188 51.3906 57.6562C51.3906 58.2188 51.4219 58.875 51.4844 59.625C51.5469 60.3438 51.625 61.0312 51.7188 61.6875C51.8125 62.4688 51.9219 63.2656 52.0469 64.0781C52.0469 64.1406 52.0781 64.3438 52.1406 64.6875C52.2031 65.0312 52.2656 65.4375 52.3281 65.9062C52.3906 66.375 52.4375 66.875 52.4688 67.4062C52.5312 67.9062 52.5625 68.3594 52.5625 68.7656ZM93.4375 69.7031C93.4375 70.0469 93.25 70.3594 92.875 70.6406C92.5 70.9219 92.0625 71.1562 91.5625 71.3438C91.0938 71.5312 90.6094 71.6719 90.1094 71.7656C89.6094 71.8906 89.2188 71.9531 88.9375 71.9531C88.4062 71.9531 87.9219 71.8438 87.4844 71.625C87.0469 71.4375 86.6406 71.1875 86.2656 70.875C85.8906 70.5625 85.5312 70.2188 85.1875 69.8438C84.875 69.4688 84.5781 69.0938 84.2969 68.7188C83.2031 67.375 82.0781 65.875 80.9219 64.2188C79.7656 62.5625 78.7344 60.9844 77.8281 59.4844C77.8281 59.6094 77.8438 59.7656 77.875 59.9531C77.9062 60.1406 77.9219 60.2969 77.9219 60.4219C77.9844 61.0781 78.0312 61.7344 78.0625 62.3906C78.125 63.0156 78.2031 63.6562 78.2969 64.3125C78.3281 64.6875 78.3594 65.0625 78.3906 65.4375C78.4531 65.7812 78.5156 66.1562 78.5781 66.5625C78.6406 67.0625 78.7031 67.5625 78.7656 68.0625C78.8281 68.5625 78.8594 69.0781 78.8594 69.6094C78.8594 70.2656 78.6719 70.7031 78.2969 70.9219C77.9219 71.1719 77.4219 71.2969 76.7969 71.2969C76.3594 71.2969 75.8906 71.2656 75.3906 71.2031C74.8906 71.1406 74.4062 71.0156 73.9375 70.8281C73.4688 70.6406 73.0469 70.3906 72.6719 70.0781C72.2969 69.7656 72.0156 69.3594 71.8281 68.8594C71.7344 68.4844 71.6406 67.7812 71.5469 66.75C71.4531 65.7188 71.375 64.5781 71.3125 63.3281C71.25 62.0469 71.1875 60.7656 71.125 59.4844C71.0938 58.2031 71.0625 57.1406 71.0312 56.2969C71.0312 56.1094 71.0156 55.9531 70.9844 55.8281C70.9844 55.7031 70.9844 55.5781 70.9844 55.4531C70.7344 55.2344 70.5156 54.9688 70.3281 54.6562C70.1406 54.3438 70.0469 54.0469 70.0469 53.7656C70.0469 53.3594 70.125 53 70.2812 52.6875C70.4375 52.375 70.6094 52.0781 70.7969 51.7969C70.6094 47.9531 70.5156 44.125 70.5156 40.3125C70.5156 37.1562 70.5469 34.0312 70.6094 30.9375C70.7031 27.8125 70.7812 24.6875 70.8438 21.5625L70.9844 15.2812C71.0156 14.9687 71.0312 14.5625 71.0312 14.0625C71.0312 13.5625 71.0312 13.0312 71.0312 12.4688C71.0312 11.7812 71.0312 11.0625 71.0312 10.3125C71.0312 9.5625 71.0469 8.85938 71.0781 8.20312C71.1094 7.54688 71.1406 6.95312 71.1719 6.42188C71.2031 5.89063 71.2656 5.5 71.3594 5.25V5.29688C71.4844 4.82812 71.6562 4.48438 71.875 4.26562C72.0938 4.04687 72.4688 3.9375 73 3.9375C74.3125 3.9375 75.3281 4.32812 76.0469 5.10938C76.7656 5.89063 77.125 6.9375 77.125 8.25C77.125 10.3438 77.1094 12.4375 77.0781 14.5312C77.0781 16.5938 77.0625 18.6719 77.0312 20.7656C77 22.8594 76.9688 24.9531 76.9375 27.0469C76.9375 29.1094 76.9375 31.1875 76.9375 33.2812C76.9375 34.0312 76.9375 34.7969 76.9375 35.5781C76.9688 36.3281 76.9844 37.0938 76.9844 37.875C77.0156 38.5 77.0312 39.1406 77.0312 39.7969C77.0312 40.4531 77.0312 41.1406 77.0312 41.8594L82.0938 33.7969V33.8438L82.5156 33C82.6094 32.8438 82.6562 32.7344 82.6562 32.6719C82.6875 32.6094 82.7188 32.5312 82.75 32.4375C82.8125 32.3125 82.9219 32.125 83.0781 31.875C83.2656 31.625 83.5781 31.25 84.0156 30.75C84.1719 30.5938 84.3594 30.4531 84.5781 30.3281C84.7969 30.2031 85.0781 30.1406 85.4219 30.1406C85.7656 30.1406 86.1094 30.25 86.4531 30.4688C86.8281 30.6562 87.1562 30.9062 87.4375 31.2188C87.7188 31.5312 87.9531 31.875 88.1406 32.25C88.3281 32.625 88.4219 32.9688 88.4219 33.2812C88.4219 33.5312 88.2812 33.9688 88 34.5938C87.7188 35.1875 87.3438 35.9219 86.875 36.7969C86.4375 37.6719 85.9375 38.625 85.375 39.6562C84.8125 40.6562 84.2188 41.6719 83.5938 42.7031C83 43.7344 82.4219 44.7344 81.8594 45.7031C81.2969 46.6719 80.7969 47.5312 80.3594 48.2812L79.1406 50.25C79.8594 51.5 80.6875 52.8906 81.625 54.4219C82.5938 55.9219 83.6094 57.4375 84.6719 58.9688C85.7344 60.5 86.8125 61.9688 87.9062 63.375C89.0312 64.7812 90.125 66.0156 91.1875 67.0781L91.6562 67.4531C92.0312 67.7344 92.4219 68.0781 92.8281 68.4844C93.2344 68.8594 93.4375 69.2656 93.4375 69.7031ZM116.031 69.7031C116.031 70.0469 115.844 70.3594 115.469 70.6406C115.094 70.9219 114.656 71.1562 114.156 71.3438C113.688 71.5312 113.203 71.6719 112.703 71.7656C112.203 71.8906 111.812 71.9531 111.531 71.9531C111 71.9531 110.516 71.8438 110.078 71.625C109.641 71.4375 109.234 71.1875 108.859 70.875C108.484 70.5625 108.125 70.2188 107.781 69.8438C107.469 69.4688 107.172 69.0938 106.891 68.7188C105.797 67.375 104.672 65.875 103.516 64.2188C102.359 62.5625 101.328 60.9844 100.422 59.4844C100.422 59.6094 100.438 59.7656 100.469 59.9531C100.5 60.1406 100.516 60.2969 100.516 60.4219C100.578 61.0781 100.625 61.7344 100.656 62.3906C100.719 63.0156 100.797 63.6562 100.891 64.3125C100.922 64.6875 100.953 65.0625 100.984 65.4375C101.047 65.7812 101.109 66.1562 101.172 66.5625C101.234 67.0625 101.297 67.5625 101.359 68.0625C101.422 68.5625 101.453 69.0781 101.453 69.6094C101.453 70.2656 101.266 70.7031 100.891 70.9219C100.516 71.1719 100.016 71.2969 99.3906 71.2969C98.9531 71.2969 98.4844 71.2656 97.9844 71.2031C97.4844 71.1406 97 71.0156 96.5312 70.8281C96.0625 70.6406 95.6406 70.3906 95.2656 70.0781C94.8906 69.7656 94.6094 69.3594 94.4219 68.8594C94.3281 68.4844 94.2344 67.7812 94.1406 66.75C94.0469 65.7188 93.9688 64.5781 93.9062 63.3281C93.8438 62.0469 93.7812 60.7656 93.7188 59.4844C93.6875 58.2031 93.6562 57.1406 93.625 56.2969C93.625 56.1094 93.6094 55.9531 93.5781 55.8281C93.5781 55.7031 93.5781 55.5781 93.5781 55.4531C93.3281 55.2344 93.1094 54.9688 92.9219 54.6562C92.7344 54.3438 92.6406 54.0469 92.6406 53.7656C92.6406 53.3594 92.7188 53 92.875 52.6875C93.0312 52.375 93.2031 52.0781 93.3906 51.7969C93.2031 47.9531 93.1094 44.125 93.1094 40.3125C93.1094 37.1562 93.1406 34.0312 93.2031 30.9375C93.2969 27.8125 93.375 24.6875 93.4375 21.5625L93.5781 15.2812C93.6094 14.9687 93.625 14.5625 93.625 14.0625C93.625 13.5625 93.625 13.0312 93.625 12.4688C93.625 11.7812 93.625 11.0625 93.625 10.3125C93.625 9.5625 93.6406 8.85938 93.6719 8.20312C93.7031 7.54688 93.7344 6.95312 93.7656 6.42188C93.7969 5.89063 93.8594 5.5 93.9531 5.25V5.29688C94.0781 4.82812 94.25 4.48438 94.4688 4.26562C94.6875 4.04687 95.0625 3.9375 95.5938 3.9375C96.9062 3.9375 97.9219 4.32812 98.6406 5.10938C99.3594 5.89063 99.7188 6.9375 99.7188 8.25C99.7188 10.3438 99.7031 12.4375 99.6719 14.5312C99.6719 16.5938 99.6562 18.6719 99.625 20.7656C99.5938 22.8594 99.5625 24.9531 99.5312 27.0469C99.5312 29.1094 99.5312 31.1875 99.5312 33.2812C99.5312 34.0312 99.5312 34.7969 99.5312 35.5781C99.5625 36.3281 99.5781 37.0938 99.5781 37.875C99.6094 38.5 99.625 39.1406 99.625 39.7969C99.625 40.4531 99.625 41.1406 99.625 41.8594L104.688 33.7969V33.8438L105.109 33C105.203 32.8438 105.25 32.7344 105.25 32.6719C105.281 32.6094 105.312 32.5312 105.344 32.4375C105.406 32.3125 105.516 32.125 105.672 31.875C105.859 31.625 106.172 31.25 106.609 30.75C106.766 30.5938 106.953 30.4531 107.172 30.3281C107.391 30.2031 107.672 30.1406 108.016 30.1406C108.359 30.1406 108.703 30.25 109.047 30.4688C109.422 30.6562 109.75 30.9062 110.031 31.2188C110.312 31.5312 110.547 31.875 110.734 32.25C110.922 32.625 111.016 32.9688 111.016 33.2812C111.016 33.5312 110.875 33.9688 110.594 34.5938C110.312 35.1875 109.938 35.9219 109.469 36.7969C109.031 37.6719 108.531 38.625 107.969 39.6562C107.406 40.6562 106.812 41.6719 106.188 42.7031C105.594 43.7344 105.016 44.7344 104.453 45.7031C103.891 46.6719 103.391 47.5312 102.953 48.2812L101.734 50.25C102.453 51.5 103.281 52.8906 104.219 54.4219C105.188 55.9219 106.203 57.4375 107.266 58.9688C108.328 60.5 109.406 61.9688 110.5 63.375C111.625 64.7812 112.719 66.0156 113.781 67.0781L114.25 67.4531C114.625 67.7344 115.016 68.0781 115.422 68.4844C115.828 68.8594 116.031 69.2656 116.031 69.7031ZM143.922 54.1875C143.922 56.5 143.547 58.6875 142.797 60.75C142.047 62.8125 140.969 64.625 139.562 66.1875C138.188 67.7188 136.516 68.9375 134.547 69.8438C132.578 70.7812 130.391 71.25 127.984 71.25C125.859 71.25 123.891 70.9062 122.078 70.2188C120.297 69.5625 118.75 68.625 117.438 67.4062C116.125 66.1875 115.094 64.7031 114.344 62.9531C113.625 61.2031 113.266 59.25 113.266 57.0938C113.266 56.6562 113.281 56.1094 113.312 55.4531C113.344 54.7969 113.438 54.1719 113.594 53.5781C113.781 52.9531 114.031 52.4375 114.344 52.0312C114.688 51.5938 115.172 51.375 115.797 51.375C116.297 51.375 116.844 51.4844 117.438 51.7031C118.062 51.8906 118.641 52.1562 119.172 52.5C119.703 52.8438 120.141 53.2656 120.484 53.7656C120.859 54.2344 121.047 54.75 121.047 55.3125V58.0312C121.047 60.1875 121.625 61.9531 122.781 63.3281C123.969 64.6719 125.672 65.3438 127.891 65.3438C129.453 65.3438 130.797 64.9844 131.922 64.2656C133.047 63.5469 133.953 62.625 134.641 61.5C135.359 60.375 135.875 59.125 136.188 57.75C136.531 56.3438 136.703 54.9688 136.703 53.625C136.703 51 136.156 48.4531 135.062 45.9844C134 43.5156 132.656 41.1094 131.031 38.7656C129.406 36.3906 127.641 34.0625 125.734 31.7812C123.828 29.5 122.062 27.2344 120.438 24.9844C118.812 22.7344 117.453 20.4844 116.359 18.2344C115.297 15.9844 114.766 13.6875 114.766 11.3438C114.766 9.4375 115.141 7.79687 115.891 6.42188C116.672 5.01562 117.688 3.875 118.938 3C120.219 2.09375 121.656 1.4375 123.25 1.03125C124.875 0.59375 126.547 0.375 128.266 0.375C130.359 0.375 132.234 0.671875 133.891 1.26562C135.547 1.85938 136.953 2.71875 138.109 3.84375C139.266 4.96875 140.141 6.35938 140.734 8.01562C141.359 9.64063 141.672 11.5 141.672 13.5938C141.672 13.9063 141.656 14.2969 141.625 14.7656C141.594 15.2344 141.516 15.7031 141.391 16.1719C141.266 16.6094 141.078 17 140.828 17.3438C140.578 17.6563 140.234 17.8125 139.797 17.8125C139.172 17.8125 138.547 17.6563 137.922 17.3438C137.391 17.0625 136.953 16.7969 136.609 16.5469C136.297 16.2656 136.047 15.9688 135.859 15.6562C135.672 15.3125 135.531 14.9375 135.438 14.5312C135.344 14.125 135.266 13.625 135.203 13.0312C135.047 11.9062 134.844 10.8906 134.594 9.98438C134.344 9.07813 133.969 8.3125 133.469 7.6875C132.969 7.0625 132.312 6.57812 131.5 6.23438C130.688 5.89063 129.641 5.71875 128.359 5.71875C127.453 5.71875 126.578 5.8125 125.734 6C124.922 6.1875 124.203 6.5 123.578 6.9375C122.984 7.375 122.5 7.95313 122.125 8.67188C121.781 9.35938 121.609 10.2188 121.609 11.25C121.609 12.6875 121.922 14.1562 122.547 15.6562C123.203 17.1562 124.047 18.6875 125.078 20.25C126.141 21.8125 127.328 23.4219 128.641 25.0781C129.984 26.7031 131.359 28.3906 132.766 30.1406C134.172 31.8906 135.531 33.7031 136.844 35.5781C138.188 37.4219 139.375 39.3438 140.406 41.3438C141.469 43.3438 142.312 45.4219 142.938 47.5781C143.594 49.7031 143.922 51.9062 143.922 54.1875ZM156.719 67.8281C156.719 68.1719 156.641 68.4688 156.484 68.7188C156.328 68.9375 156.125 69.1094 155.875 69.2344C155.656 69.3594 155.406 69.4375 155.125 69.4688C154.875 69.5312 154.625 69.5625 154.375 69.5625C154.031 69.5625 153.625 69.5156 153.156 69.4219C152.719 69.3594 152.281 69.25 151.844 69.0938C151.406 68.9375 151 68.75 150.625 68.5312C150.281 68.2812 150.016 67.9844 149.828 67.6406C149.641 67.3281 149.469 66.75 149.312 65.9062C149.188 65.0312 149.078 64.0312 148.984 62.9062C148.891 61.75 148.812 60.5312 148.75 59.25C148.688 57.9375 148.625 56.6875 148.562 55.5C148.531 54.3125 148.5 53.25 148.469 52.3125C148.469 51.3438 148.469 50.625 148.469 50.1562C148.469 47.9688 148.5 45.8594 148.562 43.8281C148.656 41.7656 148.75 39.6562 148.844 37.5C148.688 37.5 148.531 37.5156 148.375 37.5469C148.219 37.5781 148.062 37.5938 147.906 37.5938C147.5 37.6562 147.078 37.7031 146.641 37.7344C146.234 37.7656 145.812 37.7812 145.375 37.7812C144.844 37.7812 144.375 37.6875 143.969 37.5C143.562 37.3125 143.359 36.8906 143.359 36.2344C143.359 35.4531 143.531 34.8281 143.875 34.3594C144.219 33.8906 144.656 33.5312 145.188 33.2812C145.719 33 146.297 32.8125 146.922 32.7188C147.547 32.5938 148.156 32.5 148.75 32.4375C148.844 32.4375 148.906 32.4375 148.938 32.4375C148.969 32.4062 149.031 32.3906 149.125 32.3906C149.156 32.0156 149.188 31.5625 149.219 31.0312C149.25 30.4688 149.281 29.8594 149.312 29.2031C149.344 28.1719 149.391 27.0781 149.453 25.9219C149.516 24.7344 149.578 23.6094 149.641 22.5469C149.703 21.4531 149.781 20.5 149.875 19.6875C149.969 18.8438 150.062 18.25 150.156 17.9062C150.312 17.5 150.484 17.1719 150.672 16.9219C150.891 16.6719 151.281 16.5469 151.844 16.5469C153.094 16.5469 154.062 16.9531 154.75 17.7656C155.438 18.5781 155.781 19.5781 155.781 20.7656C155.781 22.1406 155.734 23.5156 155.641 24.8906C155.578 26.2656 155.516 27.6562 155.453 29.0625L155.312 31.4531C156.094 31.3594 156.875 31.2188 157.656 31.0312C158.406 30.875 159.156 30.7344 159.906 30.6094C160.688 30.4844 161.438 30.4219 162.156 30.4219C162.781 30.4219 163.266 30.5938 163.609 30.9375C163.953 31.25 164.125 31.7188 164.125 32.3438C164.125 33.0312 164 33.7031 163.75 34.3594C163.5 35.0156 163.062 35.5156 162.438 35.8594H162.484C162.359 35.9219 161.984 36.0156 161.359 36.1406C160.734 36.2344 160.016 36.3281 159.203 36.4219C158.422 36.5156 157.641 36.6094 156.859 36.7031C156.109 36.7969 155.547 36.8594 155.172 36.8906H155.125C155.062 38.6406 155.016 40.375 154.984 42.0938C154.953 43.7812 154.938 45.5 154.938 47.25C154.938 49.6562 155 52.2188 155.125 54.9375C155.281 57.625 155.531 60.1875 155.875 62.625L156.25 64.7344C156.375 65.2656 156.484 65.7969 156.578 66.3281C156.672 66.8281 156.719 67.3281 156.719 67.8281ZM184.469 49.7812C184.469 52.5 184.234 55.2188 183.766 57.9375C183.328 60.625 182.406 63.1719 181 65.5781C180.562 66.2969 180.062 67 179.5 67.6875C178.938 68.3438 178.312 68.9375 177.625 69.4688C176.969 70.0312 176.234 70.4688 175.422 70.7812C174.641 71.125 173.812 71.2969 172.938 71.2969C171.562 71.2969 170.359 70.9688 169.328 70.3125C168.328 69.6875 167.453 68.8594 166.703 67.8281C165.984 66.7656 165.375 65.5781 164.875 64.2656C164.406 62.9219 164.031 61.5625 163.75 60.1875C163.5 58.7812 163.312 57.4219 163.188 56.1094C163.094 54.7969 163.047 53.6406 163.047 52.6406C163.047 51.5156 163.094 50.2812 163.188 48.9375C163.281 47.5938 163.438 46.2188 163.656 44.8125C163.906 43.4062 164.219 42.0156 164.594 40.6406C165 39.2656 165.516 37.9844 166.141 36.7969C166.766 35.5781 167.516 34.5 168.391 33.5625C169.266 32.5938 170.281 31.8281 171.438 31.2656V31.3125C172.438 30.7812 173.438 30.5156 174.438 30.5156C175.062 30.5156 175.547 30.6562 175.891 30.9375C176.234 31.1875 176.391 31.625 176.359 32.25C178.078 32.5625 179.469 33.3906 180.531 34.7344C181.594 36.0781 182.406 37.6406 182.969 39.4219C183.562 41.2031 183.953 43.0312 184.141 44.9062C184.359 46.7812 184.469 48.4062 184.469 49.7812ZM173.875 38.0625C173.344 38.0625 172.844 37.8594 172.375 37.4531C171.781 38.3594 171.281 39.4062 170.875 40.5938C170.469 41.75 170.141 42.9531 169.891 44.2031C169.672 45.4219 169.516 46.6562 169.422 47.9062C169.328 49.1562 169.281 50.3281 169.281 51.4219C169.281 52.3281 169.328 53.5 169.422 54.9375C169.516 56.3438 169.688 57.7656 169.938 59.2031C170.219 60.6406 170.594 61.9844 171.062 63.2344C171.562 64.4844 172.203 65.4062 172.984 66C173.953 65.4375 174.75 64.5469 175.375 63.3281C176.031 62.0781 176.547 60.7188 176.922 59.25C177.297 57.7812 177.547 56.2969 177.672 54.7969C177.828 53.2969 177.906 52.0156 177.906 50.9531C177.906 50.1719 177.859 49.1562 177.766 47.9062C177.672 46.6562 177.516 45.3906 177.297 44.1094C177.078 42.7969 176.766 41.5781 176.359 40.4531C175.984 39.3281 175.5 38.4844 174.906 37.9219C174.625 38.0156 174.281 38.0625 173.875 38.0625ZM192.25 69.75C191.781 69.75 191.266 69.6875 190.703 69.5625C190.172 69.4375 189.656 69.2344 189.156 68.9531C188.688 68.6719 188.281 68.3281 187.938 67.9219C187.625 67.4844 187.469 66.9688 187.469 66.375C187.469 65.5 187.5 64.6406 187.562 63.7969C187.656 62.9219 187.75 62.0625 187.844 61.2188V61.2656L188.125 58.125C188.219 57 188.297 55.7656 188.359 54.4219C188.422 53.0781 188.469 51.7188 188.5 50.3438C188.562 48.9375 188.609 47.5625 188.641 46.2188C188.672 44.875 188.688 43.6406 188.688 42.5156C188.688 41.8594 188.672 41.2031 188.641 40.5469C188.641 39.8594 188.641 39.1719 188.641 38.4844C188.609 37.8906 188.594 37.2344 188.594 36.5156C188.594 35.7656 188.594 35.0781 188.594 34.4531C188.594 33.7969 188.672 33.2656 188.828 32.8594C189.016 32.4219 189.516 32.2031 190.328 32.2031C191.047 32.2031 191.797 32.3906 192.578 32.7656C193.391 33.1406 193.953 33.6719 194.266 34.3594H194.219C194.375 34.7031 194.484 35.2656 194.547 36.0469C194.641 36.7969 194.703 37.4688 194.734 38.0625C195.266 37.25 195.859 36.3906 196.516 35.4844C197.203 34.5781 197.938 33.75 198.719 33C199.5 32.2188 200.328 31.5781 201.203 31.0781C202.078 30.5781 203.016 30.3281 204.016 30.3281C205.328 30.3281 206.328 30.6562 207.016 31.3125C207.703 31.9688 208.203 32.7969 208.516 33.7969C208.828 34.7656 209 35.8125 209.031 36.9375C209.062 38.0312 209.078 39.0312 209.078 39.9375V40.3125C209.078 40.6875 209.062 41.0625 209.031 41.4375C209.031 41.7812 208.969 42.1094 208.844 42.4219C208.75 42.7031 208.562 42.9375 208.281 43.125C208.031 43.3125 207.672 43.4062 207.203 43.4062C206.703 43.4062 206.172 43.3438 205.609 43.2188C205.047 43.0625 204.516 42.8438 204.016 42.5625C203.547 42.2812 203.141 41.9375 202.797 41.5312C202.453 41.0938 202.266 40.5938 202.234 40.0312C202.234 39.7812 202.234 39.5312 202.234 39.2812C202.234 39.0312 202.25 38.7812 202.281 38.5312C202.281 38.375 202.281 38.1875 202.281 37.9688C202.312 37.7188 202.328 37.4844 202.328 37.2656C201.328 38.2656 200.438 39.5 199.656 40.9688C198.906 42.4375 198.219 44 197.594 45.6562C197 47.3125 196.484 48.9844 196.047 50.6719C195.609 52.3281 195.234 53.8281 194.922 55.1719V55.3125C194.828 56.2812 194.766 57.2344 194.734 58.1719C194.703 59.1094 194.672 60.0781 194.641 61.0781C194.609 62.2031 194.562 63.3438 194.5 64.5C194.469 65.6562 194.391 66.7812 194.266 67.875C194.203 68.4688 194.016 68.9219 193.703 69.2344C193.422 69.5781 192.938 69.75 192.25 69.75ZM229.188 60.4219C229.188 61.3594 228.922 62.3281 228.391 63.3281C227.891 64.3281 227.234 65.25 226.422 66.0938C225.609 66.9062 224.672 67.5781 223.609 68.1094C222.578 68.6406 221.547 68.9062 220.516 68.9062C219.047 68.9062 217.781 68.625 216.719 68.0625C215.656 67.4688 214.734 66.6875 213.953 65.7188C213.172 64.7188 212.531 63.5938 212.031 62.3438C211.562 61.0938 211.188 59.8125 210.906 58.5C210.625 57.1562 210.422 55.8281 210.297 54.5156C210.203 53.1719 210.156 51.9531 210.156 50.8594C210.156 49.9219 210.203 48.8125 210.297 47.5312C210.422 46.25 210.609 44.9219 210.859 43.5469C211.141 42.1719 211.516 40.8125 211.984 39.4688C212.453 38.125 213.031 36.9219 213.719 35.8594C214.438 34.7969 215.281 33.9375 216.25 33.2812C217.25 32.625 218.391 32.2969 219.672 32.2969C220.672 32.2969 221.562 32.5 222.344 32.9062C223.156 33.3125 223.828 33.8594 224.359 34.5469C224.922 35.2031 225.344 35.9688 225.625 36.8438C225.938 37.7188 226.094 38.625 226.094 39.5625C226.094 40.7812 225.812 42.1094 225.25 43.5469C224.688 44.9844 223.953 46.375 223.047 47.7188C222.172 49.0625 221.172 50.2812 220.047 51.375C218.953 52.4375 217.859 53.25 216.766 53.8125C216.828 54.375 216.953 55.2031 217.141 56.2969C217.328 57.3594 217.578 58.4219 217.891 59.4844C218.234 60.5469 218.625 61.4688 219.062 62.25C219.531 63.0312 220.078 63.4219 220.703 63.4219C221.016 63.4219 221.281 63.3281 221.5 63.1406C221.75 62.9531 221.969 62.7031 222.156 62.3906C222.344 62.0781 222.5 61.7344 222.625 61.3594C222.781 60.9844 222.922 60.625 223.047 60.2812L223.328 59.625C223.391 59.5312 223.422 59.4688 223.422 59.4375C223.453 59.4062 223.484 59.3594 223.516 59.2969C223.734 58.8906 223.938 58.5156 224.125 58.1719C224.344 57.8281 224.641 57.5312 225.016 57.2812H224.969C225.094 57.1562 225.219 57.0938 225.344 57.0938C225.5 57.0625 225.641 57.0469 225.766 57.0469C226.109 57.0469 226.484 57.1562 226.891 57.375C227.297 57.5938 227.672 57.875 228.016 58.2188C228.359 58.5312 228.641 58.8906 228.859 59.2969C229.078 59.6719 229.188 60.0469 229.188 60.4219ZM219.906 39.75C219.906 39.4375 219.891 39.1094 219.859 38.7656C219.828 38.4219 219.75 38.125 219.625 37.875C219.188 38.4062 218.797 39.0469 218.453 39.7969C218.141 40.5156 217.875 41.2812 217.656 42.0938C217.438 42.875 217.25 43.6719 217.094 44.4844C216.969 45.2969 216.875 46.0469 216.812 46.7344C217.625 45.7656 218.344 44.6719 218.969 43.4531C219.594 42.2031 219.906 40.9688 219.906 39.75Z" fill="#FF00D0"/>
</svg>
